# xmcd CD database file
#
# Track frame offsets:
#	150
#	7145
#	18142
#	43489
#	69332
#	94107
#	121070
#	144522
#	171595
#	204567
#	237385
#	263100
#
# Disc length: 3786 seconds
#
# Revision: 1
# Processed by: cddbd v1.5.1PL0 Copyright (c) Steve Scherf et al.
# Submitted via: CDex 1.51
#
DISCID=a90ec80c
DTITLE=椎名純平 - 椎名純平
DYEAR=2001
DGENRE=JPop
TTITLE0=EV
TTITLE1=物語
TTITLE2=世界
TTITLE3=未来
TTITLE4=逃げろ！
TTITLE5=仮面
TTITLE6=疑惑
TTITLE7=珈琲屋
TTITLE8=無情
TTITLE9=白昼夢
TTITLE10=朝
TTITLE11=MUSIC MAKER
EXTD=YEAR: 2001.07.18
EXTT0=
EXTT1=
EXTT2=
EXTT3=
EXTT4=
EXTT5=
EXTT6=
EXTT7=
EXTT8=
EXTT9=
EXTT10=
EXTT11=
PLAYORDER=
